<svg xmlns="http://www.w3.org/2000/svg" width="1200" height="630" viewBox="0 0 1200 630">
  <defs>
    <linearGradient id="blue" x1="0" y1="0" x2="1" y2="1"><stop stop-color="#2991FF"/><stop offset=".55" stop-color="#126BFF"/><stop offset="1" stop-color="#084BCB"/></linearGradient>
    <linearGradient id="ice" x1="0" y1="0" x2="1" y2="1"><stop stop-color="#FFFFFF"/><stop offset="1" stop-color="#C5CFDD"/></linearGradient>
    <linearGradient id="fade" x1="0" y1="0" x2="0" y2="1"><stop stop-color="#08111F" stop-opacity="0"/><stop offset="1" stop-color="#08111F"/></linearGradient>
  </defs>
  <rect width="1200" height="630" fill="#08111F"/>
  <g fill="none" stroke="#126BFF" stroke-width="2" opacity=".28">
    <path d="M-100 470 C 100 290 280 660 520 420"/><path d="M-10 470 C 190 290 370 660 610 420"/><path d="M80 470 C 280 290 460 660 700 420"/><path d="M170 470 C 370 290 550 660 790 420"/><path d="M260 470 C 460 290 640 660 880 420"/><path d="M350 470 C 550 290 730 660 970 420"/><path d="M440 470 C 640 290 820 660 1060 420"/><path d="M530 470 C 730 290 910 660 1150 420"/><path d="M620 470 C 820 290 1000 660 1240 420"/><path d="M710 470 C 910 290 1090 660 1330 420"/>
  </g>
  <rect y="330" width="1200" height="300" fill="url(#fade)"/>
  <g transform="translate(96 150) scale(2.6)">
    <path fill="url(#blue)" d="M0 30 96 8 48 82 57 43 13 54Z"/><path fill="#0C57E6" d="M0 30 13 54 48 43 96 8Z" opacity=".9"/><path fill="#0750D8" d="M48 82 57 43 48 43 36 96Z"/><path fill="url(#ice)" d="M31 55 55 48 36 96 20 101 20 68Z"/><path fill="#D6DEEA" d="M20 68 31 55 36 96 20 101Z"/>
  </g>
  <text x="400" y="278" font-family="Arial, Helvetica, sans-serif" font-size="112" font-weight="700" letter-spacing="10" fill="#FFFFFF">TRAZIO</text>
  <text x="406" y="318" font-family="Arial, Helvetica, sans-serif" font-size="24" font-weight="600" letter-spacing="6" fill="#2991FF">DIGITAL GROWTH STUDIO</text>
  <text x="404" y="410" font-family="Arial, Helvetica, sans-serif" font-size="36" fill="#E9EEF5">Diamo trazione al tuo business.</text>
  <text x="404" y="456" font-family="Arial, Helvetica, sans-serif" font-size="24" fill="#94A3B8">Siti web, landing page e soluzioni digitali su misura.</text>
  <text x="404" y="560" font-family="Arial, Helvetica, sans-serif" font-size="22" letter-spacing="2" fill="#2991FF">www.trazio.it</text>
</svg>
